<svg width="15" height="15" viewBox="0 0 15 15" fill="none" xmlns="http://www.w3.org/2000/svg">
<g clip-path="url(#clip0_532_2212)">
<path d="M3.90848 0.324955C3.35841 0.020925 2.71257 0.0279546 2.16602 0.329349L8.57174 6.23861L10.7237 4.08667L3.90848 0.324955Z" fill="white"/>
<path d="M1.52582 0.934082C1.36941 1.18978 1.27979 1.48239 1.27979 1.79257V12.4653C1.27979 12.7658 1.3615 13.0522 1.50913 13.3027L7.95088 6.86092L1.52582 0.934082Z" fill="white"/>
<path d="M13.577 5.66145L11.5244 4.52881L9.21777 6.83452L12.0446 9.44162L13.5779 8.59543C14.1297 8.28965 14.4601 7.74134 14.4601 7.128C14.4592 6.51467 14.1297 5.96636 13.577 5.66145Z" fill="white"/>
<path d="M8.59653 7.45654L2.13721 13.9159C2.41751 14.0758 2.72506 14.1601 3.03436 14.1601C3.33312 14.1601 3.63363 14.0846 3.90867 13.9326L11.2344 9.88966L8.59653 7.45654Z" fill="white"/>
</g>
<defs>
<clipPath id="clip0_532_2212">
<rect width="14.06" height="14.06" fill="white" transform="translate(0.839844 0.100098)"/>
</clipPath>
</defs>
</svg>
