<svg width="13" height="16" viewBox="0 0 13 16" fill="none" xmlns="http://www.w3.org/2000/svg">
<path d="M10.7445 8.67613C10.7594 7.50672 11.3795 6.40021 12.3633 5.7877C11.7427 4.89008 10.7032 4.32095 9.6217 4.28669C8.46821 4.16407 7.34995 4.98571 6.76215 4.98571C6.16298 4.98571 5.25797 4.29886 4.28343 4.31917C3.01316 4.36073 1.82895 5.09214 1.21093 6.21684C-0.117554 8.54621 0.873377 11.9696 2.14596 13.8525C2.78265 14.7745 3.52677 15.8044 4.50044 15.7679C5.45322 15.7278 5.80907 15.1526 6.95917 15.1526C8.09859 15.1526 8.43245 15.7679 9.42587 15.7446C10.4483 15.7278 11.0924 14.8185 11.7068 13.8878C12.1642 13.2309 12.5162 12.5048 12.7498 11.7365C11.5483 11.2218 10.7459 9.99729 10.7445 8.67613Z" fill="white"/>
<path d="M8.86811 3.04841C9.42556 2.37069 9.70019 1.4996 9.63369 0.620117C8.78203 0.710707 7.99534 1.12293 7.43036 1.77464C6.87789 2.41141 6.59038 3.26717 6.64474 4.11304C7.4967 4.12192 8.33425 3.72087 8.86811 3.04841Z" fill="white"/>
</svg>
