<svg width="22" height="22" viewBox="0 0 22 22" fill="none" xmlns="http://www.w3.org/2000/svg">
<g clip-path="url(#clip0_8051_110)">
<path d="M7.41675 14.7643V17.2727C7.41675 18.2761 7.41675 18.7778 7.61203 19.1611C7.7838 19.4982 8.05789 19.7723 8.39501 19.944C8.77827 20.1393 9.27999 20.1393 10.2834 20.1393H17.0917C18.0952 20.1393 18.5969 20.1393 18.9801 19.944C19.3173 19.7723 19.5914 19.4982 19.7631 19.1611C19.9584 18.7778 19.9584 18.2761 19.9584 17.2727V10.4643C19.9584 9.4609 19.9584 8.95918 19.7631 8.57592C19.5914 8.2388 19.3173 7.96471 18.9801 7.79294C18.5969 7.59766 18.0952 7.59766 17.0917 7.59766H14.5834M4.90841 14.7643H11.7167C12.7202 14.7643 13.2219 14.7643 13.6051 14.569C13.9423 14.3973 14.2164 14.1232 14.3881 13.7861C14.5834 13.4028 14.5834 12.9011 14.5834 11.8977V5.08932C14.5834 4.0859 14.5834 3.58418 14.3881 3.20092C14.2164 2.8638 13.9423 2.58971 13.6051 2.41794C13.2219 2.22266 12.7202 2.22266 11.7167 2.22266H4.90841C3.90499 2.22266 3.40327 2.22266 3.02002 2.41794C2.68289 2.58971 2.4088 2.8638 2.23703 3.20092C2.04175 3.58418 2.04175 4.0859 2.04175 5.08932V11.8977C2.04175 12.9011 2.04175 13.4028 2.23703 13.7861C2.4088 14.1232 2.68289 14.3973 3.02002 14.569C3.40327 14.7643 3.90499 14.7643 4.90841 14.7643Z" stroke="white" stroke-width="1.79167" stroke-linecap="round" stroke-linejoin="round"/>
</g>
<defs>
<clipPath id="clip0_8051_110">
<rect width="21.5" height="21.5" fill="white" transform="translate(0.25 0.429688)"/>
</clipPath>
</defs>
</svg>
