<svg width="22" height="22" viewBox="0 0 22 22" fill="none" xmlns="http://www.w3.org/2000/svg">
<path d="M12.7916 2.28436V5.98464C12.7916 6.48635 12.7916 6.73721 12.8892 6.92884C12.9751 7.0974 13.1122 7.23444 13.2807 7.32033C13.4723 7.41797 13.7232 7.41797 14.2249 7.41797H17.9252M18.1666 9.19909V15.6596C18.1666 17.1648 18.1666 17.9173 17.8737 18.4922C17.616 18.9979 17.2049 19.4091 16.6992 19.6667C16.1243 19.9596 15.3717 19.9596 13.8666 19.9596H8.13325C6.62811 19.9596 5.87554 19.9596 5.30065 19.6667C4.79497 19.4091 4.38383 18.9979 4.12617 18.4922C3.83325 17.9173 3.83325 17.1648 3.83325 15.6596V6.34297C3.83325 4.83783 3.83325 4.08526 4.12617 3.51037C4.38383 3.00468 4.79497 2.59355 5.30065 2.33589C5.87554 2.04297 6.62811 2.04297 8.13325 2.04297H11.0105C11.6678 2.04297 11.9965 2.04297 12.3058 2.11722C12.58 2.18306 12.8421 2.29165 13.0826 2.439C13.3538 2.6052 13.5862 2.8376 14.051 3.30241L16.9071 6.15853C17.372 6.62334 17.6044 6.85574 17.7706 7.12695C17.9179 7.36741 18.0265 7.62956 18.0923 7.90378C18.1666 8.21308 18.1666 8.54175 18.1666 9.19909Z" stroke="white" stroke-width="1.79" stroke-linecap="round" stroke-linejoin="round"/>
</svg>
