<svg width="517" height="403" viewBox="0 0 517 403" fill="none" xmlns="http://www.w3.org/2000/svg">
<path d="M497.846 210.101C500.563 207.357 502.078 203.646 502.058 199.785C502.038 195.924 500.486 192.229 497.741 189.513L325.955 19.4737C321.78 15.3409 315.53 14.1226 310.108 16.3846C304.687 18.6466 301.156 23.9456 301.156 29.8203L301.156 129.786L29.404 129.786C21.3638 129.786 14.8459 136.304 14.8459 144.344L14.8459 258.868C14.8459 266.909 21.3638 273.426 29.404 273.426L301.156 273.426L301.156 373.392C301.156 379.294 304.719 384.612 310.177 386.856C315.635 389.101 321.908 387.828 326.06 383.634L497.846 210.101Z" stroke="white" stroke-width="29.1163" stroke-linejoin="round"/>
</svg>
