<svg width="118" height="41" viewBox="0 0 118 41" fill="none" xmlns="http://www.w3.org/2000/svg">
<g clip-path="url(#clip0_8430_4802)">
<path d="M0.0844727 35.6094H0.971943V40.7155H0.0844727V35.6094Z" fill="white"/>
<path d="M18.3555 35.6094V40.7155H17.6251L14.99 37.2579V40.7155H14.1094V35.6094H14.8398L17.4749 39.0669V35.6094H18.3555Z" fill="white"/>
<path d="M32.4485 36.4117H30.8647V35.6094H34.9199V36.4117H33.3361V40.7155H32.4485V36.4117Z" fill="white"/>
<path d="M51.0152 39.9204V40.7155H47.4312V35.6094H50.9196V36.4045H48.3187V37.7321H50.626V38.5126H48.3187V39.9204H51.0152Z" fill="white"/>
<path d="M66.9748 40.7155L65.9986 39.2201C65.9576 39.2249 65.8961 39.2273 65.8143 39.2273H64.7357V40.7155H63.8481V35.6094H65.8143C66.2284 35.6094 66.588 35.6822 66.8928 35.8282C67.2023 35.9741 67.439 36.1832 67.6028 36.4555C67.7667 36.7278 67.8486 37.0512 67.8486 37.4256C67.8486 37.8098 67.7598 38.1405 67.5824 38.4176C67.4095 38.6949 67.1591 38.9015 66.8314 39.0377L67.9305 40.7155H66.9748ZM66.9543 37.4256C66.9543 37.0999 66.8541 36.8494 66.6539 36.6743C66.4537 36.4993 66.1601 36.4117 65.7733 36.4117H64.7357V38.4468H65.7733C66.1601 38.4468 66.4537 38.3594 66.6539 38.1843C66.8541 38.0044 66.9543 37.7514 66.9543 37.4256Z" fill="white"/>
<path d="M84.9327 35.6094V40.7155H84.2022L81.5671 37.2579V40.7155H80.6865V35.6094H81.417L84.0521 39.0669V35.6094H84.9327Z" fill="white"/>
<path d="M101.642 39.9204V40.7155H98.0581V35.6094H101.547V36.4045H98.9455V37.7321H101.253V38.5126H98.9455V39.9204H101.642Z" fill="white"/>
<path d="M115.445 36.4117H113.861V35.6094H117.916V36.4117H116.333V40.7155H115.445V36.4117Z" fill="white"/>
<path d="M18.6008 26.2442H13.8936V16.3308C13.8936 14.6725 13.5186 13.4691 12.7686 12.7205C12.0186 11.972 10.9974 11.5977 9.70619 11.5977C8.32207 11.5977 7.15595 12.0238 6.21084 12.8757C5.26422 13.7277 4.79167 15.0985 4.79167 16.9865V26.2442H0.0844727V7.76534H4.58284V10.1144C5.34349 9.23958 6.27792 8.58994 7.38612 8.16243C8.49432 7.73643 9.67112 7.52344 10.9165 7.52344C12.3921 7.52344 13.7076 7.81099 14.8616 8.38759C16.0154 8.96268 16.9271 9.84966 17.5962 11.047C18.2654 12.2443 18.5993 13.7764 18.5993 15.6416V26.2458L18.6008 26.2442Z" fill="white"/>
<path d="M74.9922 26.2442H70.2861V16.3308C70.2861 14.6725 69.9234 13.4691 69.1964 12.7205C68.4695 11.972 67.5186 11.5977 66.3421 11.5977C65.0268 11.5977 63.9372 12.0116 63.0716 12.8407C62.2075 13.6698 61.7747 15.0164 61.7747 16.8815V26.2427H57.0686V16.3308C57.0686 13.177 55.7534 11.5993 53.1246 11.5993C51.8093 11.5993 50.7196 12.0131 49.8541 12.8422C48.9885 13.6715 48.5572 15.0179 48.5572 16.8831V26.2442H43.8511V7.76534H48.3484V10.0794C49.8023 8.37542 51.8078 7.52344 54.3681 7.52344C55.5904 7.52344 56.7441 7.77142 57.8276 8.26588C58.9111 8.76185 59.8225 9.5606 60.5616 10.6667C61.2763 9.72339 62.2044 8.96268 63.3475 8.38759C64.4889 7.8125 65.8438 7.52344 67.4134 7.52344C68.9831 7.52344 70.2328 7.80033 71.3758 8.3526C72.5172 8.90487 73.4057 9.7812 74.0397 10.9785C74.6736 12.1759 74.9907 13.7307 74.9907 15.6416V26.2458L74.9922 26.2442Z" fill="white"/>
<path d="M85.1576 27.0967C83.0264 27.0967 81.3609 26.5676 80.1597 25.5108C78.9585 24.454 78.3579 23.0816 78.3579 21.3936C78.3579 19.7055 78.9645 18.3096 80.1777 17.2763C81.3908 16.2431 83.3349 15.725 86.0098 15.725H90.566C90.566 12.8969 89.0922 11.4711 86.1461 11.4475C85.2625 11.4475 84.3264 11.6029 83.3409 11.9108C82.3554 12.2201 81.4762 12.6833 80.7049 13.3005L79.005 9.87727C80.0249 9.0937 81.2096 8.50485 82.5591 8.11229C83.907 7.71972 85.297 7.52344 86.7242 7.52344C92.3692 7.52344 95.191 10.2683 95.191 15.7594V26.8471H90.8385V24.4226C89.7961 26.2049 87.903 27.0967 85.1591 27.0967H85.1576ZM86.212 23.7458C87.0957 23.7458 87.9464 23.5198 88.7627 23.0691C89.5789 22.6184 90.1795 21.8929 90.5644 20.8943V18.6833H86.4502C84.0702 18.6833 82.8796 19.5156 82.8796 21.1785C82.8796 22.0814 83.1911 22.7361 83.8141 23.1397C84.4372 23.5448 85.237 23.7458 86.212 23.7458Z" fill="white"/>
<path d="M107.165 27.0964C105.426 27.0964 103.845 26.7146 102.423 25.9513C101 25.1881 99.8606 24.0912 99.0035 22.6578C98.1448 21.2259 97.7163 19.4758 97.7163 17.4095C97.7163 15.6486 98.0858 14.0398 98.8265 12.5845C99.5671 11.1294 100.635 9.96115 102.034 9.07996C103.432 8.19877 105.143 7.75972 107.163 7.75972C109.725 7.75972 111.711 8.59282 113.121 10.2606V0.714844H117.916V26.8497H113.333V24.4186C111.852 26.2043 109.796 27.0964 107.165 27.0964ZM107.905 23.1154C109.315 23.1154 110.554 22.6344 111.624 21.671C112.694 20.7076 113.228 19.2882 113.228 17.4095C113.228 15.8362 112.764 14.4974 111.835 13.3944C110.906 12.2914 109.596 11.7391 107.904 11.7391C106.376 11.7391 105.101 12.2448 104.079 13.2533C103.058 14.2631 102.545 15.6486 102.545 17.4095C102.545 19.0058 103.01 20.3571 103.938 21.4601C104.867 22.5647 106.188 23.1154 107.904 23.1154H107.905Z" fill="white"/>
<path d="M30.8046 10.2852C26.2293 10.2852 22.5195 13.856 22.5195 18.2635C22.5195 22.6708 26.2277 26.2417 30.8046 26.2417C35.3814 26.2417 39.0895 22.6708 39.0895 18.2635C39.0895 13.856 35.3814 10.2852 30.8046 10.2852ZM30.8046 22.0025C28.659 22.0025 26.9218 20.3282 26.9218 18.2635C26.9218 16.1987 28.6605 14.5243 30.8046 14.5243C32.9487 14.5243 34.6874 16.1987 34.6874 18.2635C34.6874 20.3282 32.9487 22.0025 30.8046 22.0025Z" fill="#00A77F"/>
<path d="M39.0895 8.72965L37.2224 11.0848C35.4913 9.52395 33.2507 8.58313 30.8046 8.58313C28.3584 8.58313 26.1178 9.52395 24.3867 11.0848L22.5195 8.72965C24.7558 6.71382 27.6463 5.5 30.8046 5.5C33.9628 5.5 36.8519 6.71382 39.0895 8.72965Z" fill="#00A77F"/>
<path d="M42.2452 4.95418L40.4588 7.09746C37.8534 4.86266 34.4817 3.51942 30.804 3.51942C27.1262 3.51942 23.7545 4.86413 21.1492 7.09746L19.3628 4.95418C22.4504 2.31049 26.4443 0.714844 30.804 0.714844C35.1636 0.714844 39.1575 2.30902 42.2452 4.95418Z" fill="#00A77F"/>
<path d="M0.0844727 30.8086H117.916" stroke="white" stroke-width="1.08102"/>
</g>
<defs>
<clipPath id="clip0_8430_4802">
<rect width="117.831" height="39.9977" fill="white" transform="translate(0.0844727 0.714844)"/>
</clipPath>
</defs>
</svg>
