<svg width="118" height="38" viewBox="0 0 118 38" fill="none" xmlns="http://www.w3.org/2000/svg">
<path d="M17.1159 23.6156H12.7647V14.4451C12.7647 12.9111 12.4181 11.7979 11.7248 11.1054C11.0316 10.413 10.0875 10.0668 8.89402 10.0668C7.61459 10.0668 6.53665 10.4609 5.66303 11.249C4.788 12.0371 4.35119 13.3052 4.35119 15.0517V23.6156H0V6.52162H4.15815V8.69461C4.86127 7.88537 5.72503 7.28442 6.74942 6.88895C7.77381 6.49488 8.86161 6.29785 10.0128 6.29785C11.3768 6.29785 12.5928 6.56385 13.6595 7.09724C14.7261 7.62923 15.5688 8.44973 16.1873 9.55733C16.8059 10.6649 17.1145 12.0822 17.1145 13.8076V23.617L17.1159 23.6156Z" fill="white"/>
<path d="M69.2416 23.6156H64.8915V14.4451C64.8915 12.9111 64.5562 11.7979 63.8842 11.1054C63.2123 10.413 62.3332 10.0668 61.2457 10.0668C60.03 10.0668 59.0227 10.4496 58.2226 11.2166C57.4238 11.9836 57.0237 13.2292 57.0237 14.9546V23.6142H52.6736V14.4451C52.6736 11.5277 51.4579 10.0682 49.0278 10.0682C47.8121 10.0682 46.8049 10.451 46.0047 11.218C45.2046 11.9851 44.8059 13.2306 44.8059 14.956V23.6156H40.4557V6.52162H44.6129V8.66224C45.9568 7.08598 47.8107 6.29785 50.1773 6.29785C51.3071 6.29785 52.3735 6.52725 53.3751 6.98465C54.3768 7.44345 55.2192 8.18233 55.9024 9.20549C56.5631 8.33292 57.421 7.62923 58.4775 7.09724C59.5327 6.56525 60.785 6.29785 62.236 6.29785C63.687 6.29785 64.8422 6.55399 65.8987 7.06487C66.9538 7.57575 67.7751 8.3864 68.3611 9.494C68.9472 10.6016 69.2402 12.0399 69.2402 13.8076V23.617L69.2416 23.6156Z" fill="white"/>
<path d="M78.6447 23.6289C76.676 23.6289 75.1375 23.1603 74.0279 22.2247C72.9183 21.2891 72.3635 20.074 72.3635 18.5795C72.3635 17.085 72.9238 15.849 74.0445 14.9343C75.1651 14.0195 76.961 13.5607 79.4319 13.5607H83.6407C83.6407 11.0569 82.2793 9.79452 79.5579 9.77366C78.7416 9.77366 77.8769 9.9113 76.9665 10.1838C76.0561 10.4577 75.244 10.8678 74.5315 11.4142L72.9612 8.38342C73.9033 7.68968 74.9977 7.16834 76.2443 6.82078C77.4895 6.47322 78.7734 6.29944 80.0919 6.29944C85.3064 6.29944 87.913 8.72959 87.913 13.5913V23.4078H83.8925V21.2613C82.9295 22.8392 81.1807 23.6289 78.6461 23.6289H78.6447ZM79.6187 20.6621C80.435 20.6621 81.2209 20.4619 81.9749 20.0629C82.7289 19.6639 83.2837 19.0216 83.6393 18.1374V16.1799H79.8387C77.6403 16.1799 76.5404 16.9167 76.5404 18.389C76.5404 19.1884 76.8281 19.7681 77.4037 20.1254C77.9792 20.4841 78.718 20.6621 79.6187 20.6621V20.6621Z" fill="white"/>
<path d="M98.9854 23.6288C97.3785 23.6288 95.918 23.287 94.6038 22.6034C93.2896 21.9197 92.2365 20.9373 91.4445 19.6534C90.6511 18.3709 90.2551 16.8035 90.2551 14.9527C90.2551 13.3755 90.5966 11.9346 91.2809 10.6312C91.9653 9.32787 92.9524 8.28155 94.2451 7.49231C95.5363 6.70306 97.1174 6.30982 98.984 6.30982C101.351 6.30982 103.186 7.056 104.489 8.54973V0H108.919V23.4079H104.686V21.2305C103.317 22.8299 101.417 23.6288 98.9854 23.6288ZM99.6698 20.0633C100.973 20.0633 102.117 19.6326 103.106 18.7697C104.094 17.9068 104.588 16.6354 104.588 14.9527C104.588 13.5437 104.159 12.3445 103.301 11.3566C102.443 10.3686 101.232 9.87395 99.6683 9.87395C98.2566 9.87395 97.0787 10.3269 96.1346 11.2301C95.1906 12.1347 94.7171 13.3755 94.7171 14.9527C94.7171 16.3825 95.1461 17.5927 96.0041 18.5807C96.862 19.57 98.083 20.0633 99.6683 20.0633H99.6698Z" fill="white"/>
<path d="M28.4934 8.85645C24.2641 8.85645 20.835 12.1597 20.835 16.2368C20.835 20.3138 24.2628 23.6171 28.4934 23.6171C32.7241 23.6171 36.1518 20.3138 36.1518 16.2368C36.1518 12.1597 32.7241 8.85645 28.4934 8.85645V8.85645ZM28.4934 19.6956C26.5101 19.6956 24.9043 18.1468 24.9043 16.2368C24.9043 14.3268 26.5115 12.7779 28.4934 12.7779C30.4754 12.7779 32.0826 14.3268 32.0826 16.2368C32.0826 18.1468 30.4754 19.6956 28.4934 19.6956Z" fill="#00A77F"/>
<path d="M36.1518 7.41582L34.4259 9.59445C32.8257 8.15059 30.7545 7.28028 28.4934 7.28028C26.2323 7.28028 24.1612 8.15059 22.561 9.59445L20.835 7.41582C22.9021 5.55107 25.574 4.42822 28.4934 4.42822C31.4128 4.42822 34.0834 5.55107 36.1518 7.41582Z" fill="#00A77F"/>
<path d="M39.0693 3.92161L37.418 5.90426C35.0097 3.83695 31.893 2.59438 28.4934 2.59438C25.0938 2.59438 21.9771 3.83831 19.5688 5.90426L17.9175 3.92161C20.7716 1.47606 24.4635 0 28.4934 0C32.5234 0 36.2152 1.4747 39.0693 3.92161Z" fill="#00A77F"/>
<path fill-rule="evenodd" clip-rule="evenodd" d="M108.919 28.3405H0V27.9324H108.919V28.3405Z" fill="white"/>
<path d="M0 32.197H0.919132V37.169H0V32.197Z" fill="white"/>
<path d="M17.0487 32.197V37.169H16.2922L13.5631 33.8023V37.169H12.651V32.197H13.4076L16.1367 35.5637V32.197H17.0487Z" fill="white"/>
<path d="M29.7721 32.9783H28.1318V32.197H32.3316V32.9783H30.6913V37.169H29.7721V32.9783Z" fill="white"/>
<path d="M47.1265 36.3948V37.169H43.4146V32.197H47.0275V32.9712H44.3338V34.2639H46.7235V35.0239H44.3338V36.3948H47.1265Z" fill="white"/>
<path d="M61.7826 37.169L60.7715 35.7129C60.7291 35.7176 60.6655 35.72 60.5806 35.72H59.4635V37.169H58.5444V32.197H60.5806C61.0096 32.197 61.3819 32.268 61.6977 32.4101C62.0182 32.5522 62.2633 32.7558 62.433 33.0209C62.6027 33.2861 62.6876 33.601 62.6876 33.9656C62.6876 34.3397 62.5956 34.6617 62.4118 34.9316C62.2327 35.2015 61.9735 35.4027 61.6341 35.5353L62.7724 37.169H61.7826ZM61.7614 33.9656C61.7614 33.6484 61.6577 33.4045 61.4503 33.234C61.2429 33.0636 60.9389 32.9783 60.5382 32.9783H59.4635V34.96H60.5382C60.9389 34.96 61.2429 34.8748 61.4503 34.7043C61.6577 34.5291 61.7614 34.2829 61.7614 33.9656Z" fill="white"/>
<path d="M78.5068 32.197V37.169H77.7503L75.0212 33.8023V37.169H74.1092V32.197H74.8657L77.5948 35.5637V32.197H78.5068Z" fill="white"/>
<path d="M93.9382 36.3948V37.169H90.2263V32.197H93.8392V32.9712H91.1454V34.2639H93.5352V35.0239H91.1454V36.3948H93.9382Z" fill="white"/>
<path d="M106.36 32.9783H104.72V32.197H108.919V32.9783H107.279V37.169H106.36V32.9783Z" fill="white"/>
<g clip-path="url(#clip0_2582_6168)">
<path fill-rule="evenodd" clip-rule="evenodd" d="M114.5 0.75249C112.983 0.75249 111.753 1.98259 111.753 3.49999C111.753 5.01739 112.983 6.24749 114.5 6.24749C116.018 6.24749 117.248 5.01739 117.248 3.49999C117.248 1.98259 116.018 0.75249 114.5 0.75249ZM111.053 3.49999C111.053 1.59599 112.596 0.0524902 114.5 0.0524902C116.404 0.0524902 117.948 1.59599 117.948 3.49999C117.948 5.40399 116.404 6.94749 114.5 6.94749C112.596 6.94749 111.053 5.40399 111.053 3.49999Z" fill="white"/>
<path d="M114.311 3.21994C114.504 3.21994 114.644 3.18144 114.728 3.10794C114.812 3.03794 114.857 2.91894 114.857 2.75094C114.857 2.58644 114.812 2.47094 114.728 2.39744C114.644 2.32744 114.504 2.29244 114.311 2.29244H113.919V3.21994H114.311ZM113.919 3.86044V5.22544H112.988V1.61694H114.409C114.885 1.61694 115.232 1.69744 115.452 1.85844C115.676 2.01594 115.785 2.26794 115.785 2.61444C115.785 2.85244 115.729 3.04844 115.613 3.20244C115.498 3.35294 115.326 3.46844 115.092 3.53844C115.221 3.56994 115.333 3.63644 115.435 3.73794C115.536 3.83944 115.638 3.99344 115.739 4.20344L116.247 5.22544H115.256L114.815 4.32944C114.728 4.15094 114.637 4.02494 114.546 3.96194C114.455 3.89544 114.332 3.86044 114.182 3.86044H113.919Z" fill="white"/>
</g>
<defs>
<clipPath id="clip0_2582_6168">
<rect width="7" height="7" fill="white" transform="translate(111)"/>
</clipPath>
</defs>
</svg>
