<svg width="109" height="37" viewBox="0 0 109 37" fill="none" xmlns="http://www.w3.org/2000/svg">
<path d="M0 32.2764H0.820958V36.9998H0V32.2764Z" fill="black"/>
<path d="M16.9012 32.2764V36.9998H16.2255L13.7879 33.8014V36.9998H12.9733V32.2764H13.649L16.0866 35.4748V32.2764H16.9012Z" fill="black"/>
<path d="M29.9391 33.0186H28.474V32.2764H32.2252V33.0186H30.7601V36.9998H29.9391V33.0186Z" fill="black"/>
<path d="M47.1133 36.2643V36.9998H43.7979V32.2764H47.0249V33.0119H44.6189V34.24H46.7533V34.962H44.6189V36.2643H47.1133Z" fill="black"/>
<path d="M61.8774 36.9998L60.9744 35.6165C60.9365 35.621 60.8796 35.6232 60.8039 35.6232H59.8061V36.9998H58.9851V32.2764H60.8039C61.187 32.2764 61.5196 32.3438 61.8016 32.4788C62.0879 32.6138 62.3068 32.8072 62.4584 33.0591C62.61 33.311 62.6857 33.6102 62.6857 33.9565C62.6857 34.3119 62.6036 34.6178 62.4395 34.8742C62.2795 35.1307 62.0479 35.3218 61.7448 35.4478L62.7615 36.9998H61.8774ZM61.8585 33.9565C61.8585 33.6552 61.7658 33.4235 61.5806 33.2615C61.3954 33.0996 61.1238 33.0186 60.766 33.0186H59.8061V34.9012H60.766C61.1238 34.9012 61.3954 34.8203 61.5806 34.6583C61.7658 34.4919 61.8585 34.2579 61.8585 33.9565Z" fill="black"/>
<path d="M78.4888 32.2764V36.9998H77.8131L75.3755 33.8014V36.9998H74.5609V32.2764H75.2366L77.6742 35.4748V32.2764H78.4888Z" fill="black"/>
<path d="M93.9454 36.2643V36.9998H90.63V32.2764H93.857V33.0119H91.4509V34.24H93.5854V34.962H91.4509V36.2643H93.9454Z" fill="black"/>
<path d="M106.714 33.0186H105.249V32.2764H109V33.0186H107.535V36.9998H106.714V33.0186Z" fill="black"/>
<path d="M17.1286 23.6156H12.7742V14.4451C12.7742 12.9111 12.4273 11.7979 11.7335 11.1054C11.0397 10.413 10.095 10.0668 8.9006 10.0668C7.62022 10.0668 6.54149 10.4609 5.66722 11.249C4.79154 12.0371 4.35441 13.3052 4.35441 15.0517V23.6156H0V6.52162H4.16123V8.69461C4.86487 7.88537 5.72927 7.28442 6.75441 6.88895C7.77956 6.49488 8.86816 6.29785 10.0202 6.29785C11.3852 6.29785 12.6021 6.56385 13.6696 7.09724C14.737 7.62923 15.5803 8.44973 16.1993 9.55733C16.8183 10.6649 17.1272 12.0822 17.1272 13.8076V23.617L17.1286 23.6156Z" fill="black"/>
<path d="M69.293 23.6156H64.9396V14.4451C64.9396 12.9111 64.6041 11.7979 63.9316 11.1054C63.2592 10.413 62.3795 10.0668 61.2912 10.0668C60.0745 10.0668 59.0665 10.4496 58.2658 11.2166C57.4665 11.9836 57.0661 13.2292 57.0661 14.9546V23.6142H52.7127V14.4451C52.7127 11.5277 51.4961 10.0682 49.0643 10.0682C47.8476 10.0682 46.8396 10.451 46.0389 11.218C45.2382 11.9851 44.8392 13.2306 44.8392 14.956V23.6156H40.4858V6.52162H44.6461V8.66224C45.991 7.08598 47.8462 6.29785 50.2146 6.29785C51.3453 6.29785 52.4125 6.52725 53.4148 6.98465C54.4171 7.44345 55.2602 8.18233 55.9439 9.20549C56.6051 8.33292 57.4636 7.62923 58.521 7.09724C59.5769 6.56525 60.8302 6.29785 62.2822 6.29785C63.7343 6.29785 64.8903 6.55399 65.9476 7.06487C67.0035 7.57575 67.8254 8.3864 68.4119 9.494C68.9983 10.6016 69.2916 12.0399 69.2916 13.8076V23.617L69.293 23.6156Z" fill="black"/>
<path d="M78.6973 24.4042C76.7258 24.4042 75.1851 23.9147 74.074 22.9371C72.9628 21.9595 72.4072 20.69 72.4072 19.1285C72.4072 17.5669 72.9683 16.2756 74.0906 15.3198C75.2128 14.364 77.0112 13.8847 79.4856 13.8847H83.7003C83.7003 11.2686 82.337 9.94963 79.6117 9.92784C78.7943 9.92784 77.9284 10.0716 77.0167 10.3564C76.1051 10.6425 75.2918 11.071 74.5783 11.6419L73.0058 8.47527C73.9493 7.75043 75.0452 7.20571 76.2935 6.84257C77.5404 6.47942 78.8262 6.29785 80.1465 6.29785C85.3684 6.29785 87.9787 8.83696 87.9787 13.9166V24.1733H83.9524V21.9305C82.9881 23.5792 81.2369 24.4042 78.6987 24.4042H78.6973ZM79.6727 21.3044C80.4901 21.3044 81.2771 21.0953 82.0322 20.6784C82.7872 20.2615 83.3428 19.5904 83.6989 18.6666V16.6213H79.893C77.6914 16.6213 76.59 17.3912 76.59 18.9295C76.59 19.7647 76.8782 20.3704 77.4545 20.7437C78.0309 21.1185 78.7707 21.3044 79.6727 21.3044Z" fill="black"/>
<path d="M99.0548 24.4043C97.446 24.4043 95.9838 24.0512 94.6681 23.3451C93.3524 22.6391 92.2981 21.6244 91.5052 20.2984C90.7109 18.9738 90.3145 17.3549 90.3145 15.4434C90.3145 13.8145 90.6563 12.3263 91.3415 10.9801C92.0266 9.63398 93.0148 8.55333 94.309 7.73818C95.6017 6.92303 97.1846 6.51689 99.0533 6.51689C101.423 6.51689 103.26 7.28755 104.565 8.83031V0H109V24.1761H104.761V21.9272C103.391 23.5791 101.489 24.4043 99.0548 24.4043ZM99.7399 20.7217C101.044 20.7217 102.19 20.2768 103.18 19.3856C104.17 18.4944 104.664 17.1813 104.664 15.4434C104.664 13.9881 104.234 12.7496 103.375 11.7293C102.516 10.7089 101.304 10.198 99.7385 10.198C98.3251 10.198 97.1458 10.6658 96.2007 11.5987C95.2556 12.5329 94.7816 13.8145 94.7816 15.4434C94.7816 16.9201 95.211 18.1701 96.07 19.1905C96.9289 20.2123 98.1513 20.7217 99.7385 20.7217H99.7399Z" fill="black"/>
<path d="M28.4175 8.85645C24.1851 8.85645 20.7534 12.1597 20.7534 16.2368C20.7534 20.3138 24.1837 23.6171 28.4175 23.6171C32.6513 23.6171 36.0815 20.3138 36.0815 16.2368C36.0815 12.1597 32.6513 8.85645 28.4175 8.85645ZM28.4175 19.6956C26.4327 19.6956 24.8257 18.1468 24.8257 16.2368C24.8257 14.3268 26.4341 12.7779 28.4175 12.7779C30.4009 12.7779 32.0093 14.3268 32.0093 16.2368C32.0093 18.1468 30.4009 19.6956 28.4175 19.6956Z" fill="#00A77F"/>
<path d="M36.0815 7.41533L34.3543 9.59396C32.753 8.1501 30.6803 7.27979 28.4175 7.27979C26.1547 7.27979 24.082 8.1501 22.4806 9.59396L20.7534 7.41533C22.8221 5.55058 25.4959 4.42773 28.4175 4.42773C31.339 4.42773 34.0116 5.55058 36.0815 7.41533Z" fill="#00A77F"/>
<path d="M39.0014 3.92161L37.3489 5.90426C34.9388 3.83695 31.8198 2.59438 28.4177 2.59438C25.0156 2.59438 21.8966 3.83831 19.4865 5.90426L17.834 3.92161C20.6902 1.47606 24.3848 0 28.4177 0C32.4506 0 36.1452 1.4747 39.0014 3.92161Z" fill="#00A77F"/>
<line y1="27.8408" x2="109" y2="27.8408" stroke="black"/>
</svg>
