<?xml version="1.0" encoding="UTF-8" standalone="no"?>
<svg width="44px" height="28px" viewBox="0 0 44 28" version="1.1" xmlns="http://www.w3.org/2000/svg" xmlns:xlink="http://www.w3.org/1999/xlink">
    <!-- Generator: Sketch 43 (38999) - http://www.bohemiancoding.com/sketch -->
    <title>users</title>
    <desc>Created with Sketch.</desc>
    <defs></defs>
    <g id="UV:-Home-Page-V3" stroke="none" stroke-width="1" fill="none" fill-rule="evenodd">
        <g id="users" fill="#515151">
            <path d="M43.4768974,27.7600349 C43.4768974,27.7600349 43.4150062,21.8192105 43.0515127,21.2036037 C42.510828,20.286469 41.251639,19.6561153 38.9139082,18.6806203 C36.5840315,17.7076353 35.839137,16.8871401 35.839137,15.1300568 C35.839137,14.0745517 36.5504154,14.4196931 36.8633277,12.4884702 C36.9927653,11.6868009 37.6211031,12.4749783 37.7414298,10.6460427 C37.7414298,9.91685311 37.3983573,9.73518324 37.3983573,9.73518324 C37.3983573,9.73518324 37.5727211,8.65677332 37.6405816,7.82623765 C37.7254072,6.79144104 37.1184328,4.11910548 33.8846922,4.11910548 C30.6503233,4.11910548 30.0439773,6.79175481 30.1288029,7.82623765 C30.1969775,8.65677332 30.3707129,9.73518324 30.3707129,9.73518324 C30.3707129,9.73518324 30.0282688,9.91685311 30.0282688,10.6460427 C30.1485955,12.4749783 30.776305,11.6868009 30.9063709,12.4884702 C31.2186548,14.4196931 31.9305616,14.0748654 31.9305616,15.1300568 C31.9305616,16.3245597 31.5843474,17.0863809 30.6308448,17.7578377 C35.7213237,20.3027847 36.4036985,20.8214381 36.4036985,23.0965473 L36.4036985,27.7603486 L43.4768974,27.7603486 L43.4768974,27.7600349 Z M0.0282688254,27.789654 C0.0282688254,27.789654 0.090160101,21.8488295 0.453653532,21.2332228 C0.994338229,20.316088 2.25352723,19.6857344 4.5912581,18.7102393 C6.92113475,17.7372544 7.66602924,16.9167592 7.66602924,15.1596758 C7.66602924,14.1041708 6.95475082,14.4493121 6.64183858,12.5180892 C6.51240099,11.7164199 5.88406317,12.5045973 5.76373648,10.6756618 C5.76373648,9.9464722 6.10680893,9.76480232 6.10680893,9.76480232 C6.10680893,9.76480232 5.93244518,8.6863924 5.8645847,7.85585673 C5.77975909,6.82106013 6.38673343,4.14872456 9.62047404,4.14872456 C12.854843,4.14872456 13.461189,6.82137389 13.3763634,7.85585673 C13.3081887,8.6863924 13.1344533,9.76480232 13.1344533,9.76480232 C13.1344533,9.76480232 13.4768974,9.9464722 13.4768974,10.6756618 C13.3565707,12.5045973 12.7288612,11.7164199 12.5987953,12.5180892 C12.2865114,14.4493121 11.5746047,14.1044845 11.5746047,15.1596758 C11.5746047,16.3541788 11.9208188,17.1159999 12.8743215,17.7874568 C7.78384258,20.3324038 7.1014677,20.8510572 7.1014677,23.1261664 L7.1014677,27.7899677 L0.0282688254,27.7899677 L0.0282688254,27.789654 Z M21.9731347,27.7600349 L34.8856347,27.7600349 L34.8856347,23.4743202 C34.8850064,22.1304652 32.2362483,20.8650514 29.1196927,19.5635547 C26.012248,18.2664506 25.0194742,17.1723524 25.0194742,14.8300975 C25.0194742,13.4234895 25.9682643,13.8828413 26.3848523,11.3071453 C26.557331,10.2390897 27.3955337,11.2895745 27.5557598,8.85068002 C27.5557598,7.87863639 27.0986441,7.63703742 27.0986441,7.63703742 C27.0986441,7.63703742 27.3311291,6.19905293 27.4219239,5.09177664 C27.5347105,3.71246618 26.7260397,0.148724558 22.4137573,0.148724558 C22.2626167,0.148724558 22.1157795,0.153102589 21.9731347,0.161611152 C21.8304898,0.153102589 21.6836526,0.148724558 21.5325121,0.148724558 C17.2202296,0.148724558 16.4115588,3.71246618 16.5243454,5.09177664 C16.6151402,6.19905293 16.8476252,7.63703742 16.8476252,7.63703742 C16.8476252,7.63703742 16.3905095,7.87863639 16.3905095,8.85068002 C16.5507356,11.2895745 17.3889383,10.2390897 17.561417,11.3071453 C17.978005,13.8828413 18.9267951,13.4234895 18.9267951,14.8300975 C18.9267951,17.1723524 17.9340213,18.2664506 14.8265766,19.5635547 C11.710021,20.8650514 9.06126294,22.1304652 9.0606346,23.4743202 L9.0606346,27.7600349 L21.9731347,27.7600349 Z" id="Users"></path>
        </g>
    </g>
</svg>