<?xml version="1.0" encoding="UTF-8"?>
<svg width="29px" height="30px" viewBox="0 0 29 30" version="1.1" xmlns="http://www.w3.org/2000/svg" xmlns:xlink="http://www.w3.org/1999/xlink">
    <!-- Generator: Sketch 55.2 (78181) - https://sketchapp.com -->
    <title>network-inverted</title>
    <desc>Created with Sketch.</desc>
    <g id="network-inverted" stroke="none" stroke-width="1" fill="none" fill-rule="evenodd">
        <g id="network-copy" fill="#FFFFFF" fill-rule="nonzero">
            <path d="M7.09490554,9.75072385 C7.41068199,9.75072385 7.71576481,9.79846917 8.00292009,9.88704929 C9.08737945,8.67331316 10.2897832,7.56920278 11.5918893,6.58885328 C11.5374776,6.35923602 11.5053967,6.12113768 11.5053967,5.87455826 C11.5053967,5.53405879 11.5632681,5.20706621 11.6658011,4.90080515 C10.2073794,3.85543408 8.62063418,2.97842805 6.93324309,2.30025613 C5.35090114,3.27683626 3.97110902,4.54993992 2.87155278,6.04198097 C3.68804248,7.48564848 4.65864619,8.83225479 5.76166214,10.0576131 C6.16550373,9.8625484 6.6168376,9.75072385 7.09490554,9.75072385 L7.09490554,9.75072385 Z M4.01671419,12.8246425 C4.01671419,12.39305 4.10698096,11.982189 4.26769985,11.6096499 C3.27948311,10.5265852 2.38499285,9.35745324 1.60089854,8.11199161 C0.617714091,10.062639 0.0607020467,12.2645774 0.0607020467,14.5975014 C0.0607020467,17.2995092 0.804852525,19.8265556 2.09752305,21.989544 C2.55923603,19.3896232 3.43548423,16.9335665 4.64606546,14.6807416 C4.25228845,14.1649666 4.01671419,13.5232319 4.01671419,12.8246425 L4.01671419,12.8246425 Z M14.5835881,2.80001135 C15.3966181,2.80001135 16.1338492,3.11695228 16.6839418,3.63115675 C18.2898726,2.9410485 19.9813525,2.41208068 21.7407683,2.07378 C19.6168257,0.851562798 17.1554048,0.148575877 14.5279183,0.148575877 C12.7370507,0.148575877 11.022611,0.476196681 9.43932552,1.0708143 C10.6961409,1.69024693 11.8935124,2.41396536 13.0201172,3.22971918 C13.478685,2.95832476 14.0121082,2.80001135 14.5835881,2.80001135 L14.5835881,2.80001135 Z M19.1865645,17.2797201 C19.3781062,16.8814236 19.6501646,16.5293019 19.9863848,16.2491123 C19.0780557,13.4563256 17.6385051,10.9025795 15.7847338,8.70535278 C15.4158037,8.8617815 15.0097605,8.94847694 14.5832736,8.94847694 C13.915551,8.94847694 13.2994096,8.73362303 12.7949221,8.37302026 C11.6793254,9.21987135 10.6467616,10.1694377 9.70792421,11.2056995 C10.0010553,11.675928 10.1730969,12.2300249 10.1730969,12.8246425 C10.1730969,13.1459811 10.123403,13.4550691 10.0321927,13.7459386 C12.7323329,15.547696 15.83946,16.7827919 19.1865645,17.2797201 L19.1865645,17.2797201 Z M23.1793753,21.4294789 C23.2218353,22.0115319 23.2441661,22.5989249 23.2441661,23.1913438 C23.2441661,24.234516 23.1774882,25.2619826 23.0516809,26.2712306 C25.5046097,24.4814096 27.3731633,21.9405422 28.3148314,18.9859868 C27.1992347,19.2554965 26.0540733,19.4480483 24.885952,19.560187 C24.611063,20.401384 23.9845424,21.0817548 23.1793753,21.4294789 L23.1793753,21.4294789 Z M18.4650594,19.3459613 C14.8940177,18.7551131 11.5824537,17.3943716 8.70052185,15.4443525 C8.23283302,15.7308244 7.68399846,15.8995036 7.09490554,15.8995036 C6.87851689,15.8995036 6.66778958,15.8765732 6.46366716,15.8341679 C5.08387504,18.4466532 4.20228003,21.3603738 3.94877822,24.4496841 C5.32636871,25.924763 7.00715491,27.1130559 8.89520872,27.9109052 C11.2393142,24.3105316 14.5165957,21.3324177 18.4650594,19.3459613 L18.4650594,19.3459613 Z M24.2402458,3.88841604 C21.9219308,4.11175102 19.707407,4.69286175 17.645739,5.56641252 C17.6567471,5.66787131 17.6617794,5.77027244 17.6617794,5.87424415 C17.6617794,6.35955013 17.5460367,6.81689998 17.3456885,7.22524805 C19.4051548,9.64015576 21.0051098,12.4546164 22.0150283,15.5354455 C23.2664969,15.5577476 24.3368029,16.3235573 24.7969433,17.4110197 C26.1896307,17.2699825 27.5458339,17.003928 28.8523433,16.6200809 C28.9451262,15.9591852 28.9963927,15.2844685 28.9963927,14.5975014 C28.9960782,10.3506814 27.161178,6.53199866 24.2402458,3.88841604 L24.2402458,3.88841604 Z M20.0140624,20.9884629 C16.327907,22.7129483 13.2459414,25.3687813 11.0138045,28.6157768 C12.1388367,28.8962805 13.31545,29.0473693 14.5279183,29.0473693 C16.7103613,29.0473693 18.7783197,28.5617492 20.6336636,27.6976218 C20.931827,26.2410757 21.0897152,24.7345854 21.0897152,23.1913438 C21.0897152,22.6337916 21.0645537,22.0818934 21.0227228,21.5350211 C20.6509621,21.415972 20.3100242,21.2293883 20.0140624,20.9884629 L20.0140624,20.9884629 Z" id="Shape"/>
        </g>
    </g>
</svg>