<?xml version="1.0" encoding="UTF-8" standalone="no"?>
<svg width="40px" height="40px" viewBox="0 0 40 40" version="1.1" xmlns="http://www.w3.org/2000/svg" xmlns:xlink="http://www.w3.org/1999/xlink">
    <!-- Generator: Sketch 43 (38999) - http://www.bohemiancoding.com/sketch -->
    <title>no-phone</title>
    <desc>Created with Sketch.</desc>
    <defs></defs>
    <g id="UV:-Home-Page-V3" stroke="none" stroke-width="1" fill="none" fill-rule="evenodd">
        <g id="no-phone">
            <g id="No-Phone-Icon" transform="translate(1.000000, 1.000000)">
                <path d="M24.0416454,7.12274041 L14.2153655,7.12274041 C12.7931408,7.12274041 11.6295023,8.2706996 11.6295023,9.67376082 L11.6295023,29.57172 C11.6295023,30.9747812 12.7931408,32.1227404 14.2153655,32.1227404 L24.0416454,32.1227404 C25.4638701,32.1227404 26.6275086,30.9747812 26.6275086,29.57172 L26.6275086,9.67376082 C26.6275086,8.2706996 25.4638701,7.12274041 24.0416454,7.12274041 L24.0416454,7.12274041 Z M19.1285055,31.1025874 C18.1290693,31.1025874 17.3184013,30.531669 17.3184013,29.8270771 C17.3184013,29.1224853 18.1290693,28.5515669 19.1285055,28.5515669 C20.127683,28.5515669 20.9386097,29.1224853 20.9386097,29.8270771 C20.9386097,30.531669 20.1279416,31.1025874 19.1285055,31.1025874 L19.1285055,31.1025874 Z M24.558818,27.2760567 L13.6981929,27.2760567 L13.6981929,10.439322 L24.558818,10.439322 L24.558818,27.2760567 L24.558818,27.2760567 Z" id="Mobile" fill="#FFFFFF"></path>
                <path d="M31.7567711,4.86618269 L6.24322893,33.1338173" id="Line" stroke="#FFFFFF" stroke-width="2" stroke-linecap="square"></path>
                <circle id="Oval-4" stroke="#FFFFFF" stroke-width="2" cx="19" cy="19" r="19"></circle>
            </g>
        </g>
    </g>
</svg>