<svg width="262" height="166" viewBox="0 0 262 166" fill="none" xmlns="http://www.w3.org/2000/svg">
<path d="M60.493 89.86C53.5639 101.834 49.5986 115.737 49.5986 130.568H0.472168C0.472168 106.789 6.83141 84.4953 17.9408 65.293L49.8573 74.2834L60.493 89.86Z" fill="#E82D48"/>
<path d="M103.153 54.0583C85.0807 60.6367 69.9983 73.4343 60.4929 89.8636L17.9407 65.2965C33.1812 38.9535 57.3675 18.4308 86.3442 7.88281L100.739 27.0508L103.153 54.0583Z" fill="#EDA635"/>
<path d="M175.656 7.88243V33.628L158.848 54.0579C150.161 50.8937 140.783 49.1685 131.001 49.1685C121.219 49.1685 111.841 50.8937 103.154 54.0579L86.3442 7.88243C100.276 2.80999 115.314 0.0429688 131 0.0429688C146.686 0.0429688 161.724 2.80999 175.656 7.88243Z" fill="#EFD933"/>
<path d="M244.059 65.2974L226.619 88.4152L201.508 89.8645C192.003 73.4351 176.92 60.6376 158.848 54.0591L175.656 7.88281C204.632 18.4317 228.818 38.9544 244.059 65.2974Z" fill="#8CE249"/>
<path d="M261.528 130.568H212.402C212.402 115.738 208.436 101.835 201.507 89.86L244.059 65.293C255.169 84.4953 261.528 106.789 261.528 130.568Z" fill="#3FD14A"/>
<path d="M144.163 117.425C213.139 98.2551 230.741 102.85 230.741 102.85C230.741 102.85 218.034 115.867 149.058 135.037L144.163 117.425Z" fill="#474C59"/>
<path d="M131 165.182C150.114 165.182 165.609 149.688 165.609 130.574C165.609 111.46 150.114 95.9648 131 95.9648C111.886 95.9648 96.3911 111.46 96.3911 130.574C96.3911 149.688 111.886 165.182 131 165.182Z" fill="#CCCCCC"/>
<path d="M131 160.831C147.713 160.831 161.261 147.282 161.261 130.57C161.261 113.857 147.713 100.309 131 100.309C114.287 100.309 100.739 113.857 100.739 130.57C100.739 147.282 114.287 160.831 131 160.831Z" fill="#A6A9B2"/>
<path d="M8.37513 144.838V148.886H6.87085V138.918H8.57542C9.41008 138.918 10.041 138.976 10.4665 139.092C10.8972 139.209 11.2754 139.429 11.6029 139.751C12.1754 140.31 12.4616 141.016 12.4616 141.868C12.4616 142.781 12.1556 143.504 11.5453 144.037C10.9341 144.571 10.1098 144.837 9.07312 144.837H8.37513V144.838ZM8.37513 143.444H8.93644C10.3178 143.444 11.0089 142.912 11.0089 141.849C11.0089 140.82 10.2963 140.306 8.87197 140.306H8.37513V143.444Z" fill="black"/>
<path d="M13.5137 143.856C13.5137 142.453 14.0277 141.248 15.0566 140.241C16.0813 139.233 17.3113 138.73 18.7494 138.73C20.1695 138.73 21.3875 139.238 22.4035 140.254C23.4239 141.27 23.9336 142.489 23.9336 143.914C23.9336 145.347 23.4213 146.563 22.3975 147.561C21.3686 148.564 20.1274 149.065 18.6729 149.065C17.3861 149.065 16.2308 148.62 15.2062 147.729C14.0767 146.744 13.5137 145.453 13.5137 143.856ZM15.0308 143.876C15.0308 144.978 15.4013 145.884 16.1414 146.594C16.8772 147.304 17.7274 147.659 18.6918 147.659C19.738 147.659 20.6199 147.297 21.3385 146.574C22.0571 145.843 22.4164 144.951 22.4164 143.902C22.4164 142.838 22.0614 141.948 21.3514 141.229C20.6457 140.506 19.7715 140.145 18.7305 140.145C17.693 140.145 16.8171 140.506 16.1028 141.229C15.3876 141.944 15.0308 142.826 15.0308 143.876Z" fill="black"/>
<path d="M25.3271 143.856C25.3271 142.453 25.8412 141.248 26.8701 140.241C27.8947 139.233 29.1248 138.73 30.5629 138.73C31.983 138.73 33.201 139.238 34.217 140.254C35.2374 141.27 35.7471 142.489 35.7471 143.914C35.7471 145.347 35.2348 146.563 34.2101 147.561C33.1812 148.564 31.94 149.065 30.4855 149.065C29.1987 149.065 28.0435 148.62 27.0188 147.729C25.891 146.744 25.3271 145.453 25.3271 143.856ZM26.8443 143.876C26.8443 144.978 27.2148 145.884 27.9549 146.594C28.6907 147.304 29.5409 147.659 30.5053 147.659C31.5514 147.659 32.4334 147.297 33.152 146.574C33.8706 145.843 34.2299 144.951 34.2299 143.902C34.2299 142.838 33.8749 141.948 33.1649 141.229C32.4592 140.506 31.585 140.145 30.544 140.145C29.5065 140.145 28.6306 140.506 27.9162 141.229C27.2019 141.944 26.8443 142.826 26.8443 143.876Z" fill="black"/>
<path d="M41.0145 144.638L44.1005 148.886H42.2609L39.414 144.806H39.1432V148.886H37.6389V138.918H39.4011C40.718 138.918 41.6695 139.166 42.2549 139.661C42.9005 140.212 43.2237 140.939 43.2237 141.842C43.2237 142.548 43.0217 143.155 42.6168 143.663C42.2111 144.171 41.6773 144.496 41.0145 144.638ZM39.1423 143.495H39.6203C41.0446 143.495 41.7572 142.951 41.7572 141.862C41.7572 140.842 41.0644 140.332 39.6787 140.332H39.1432V143.495H39.1423Z" fill="black"/>
<path d="M221.098 143.695H225.217V144.024C225.217 144.772 225.129 145.435 224.952 146.012C224.78 146.546 224.49 147.045 224.081 147.509C223.155 148.551 221.978 149.071 220.55 149.071C219.155 149.071 217.96 148.568 216.967 147.561C215.972 146.55 215.475 145.336 215.475 143.92C215.475 142.474 215.981 141.247 216.993 140.24C218.003 139.229 219.234 138.723 220.685 138.723C221.464 138.723 222.191 138.882 222.867 139.201C223.513 139.519 224.147 140.035 224.772 140.75L223.7 141.776C222.882 140.687 221.886 140.143 220.711 140.143C219.656 140.143 218.772 140.506 218.058 141.234C217.343 141.948 216.986 142.844 216.986 143.919C216.986 145.029 217.384 145.944 218.18 146.663C218.924 147.33 219.731 147.663 220.6 147.663C221.34 147.663 222.006 147.414 222.595 146.915C223.185 146.411 223.514 145.808 223.583 145.107H221.098V143.695Z" fill="black"/>
<path d="M226.611 143.856C226.611 142.453 227.125 141.248 228.154 140.241C229.178 139.233 230.409 138.73 231.847 138.73C233.267 138.73 234.485 139.238 235.501 140.254C236.522 141.27 237.031 142.489 237.031 143.914C237.031 145.347 236.519 146.563 235.495 147.561C234.466 148.564 233.225 149.065 231.771 149.065C230.484 149.065 229.328 148.62 228.304 147.729C227.175 146.744 226.611 145.453 226.611 143.856ZM228.128 143.876C228.128 144.978 228.498 145.884 229.239 146.594C229.975 147.304 230.825 147.659 231.789 147.659C232.836 147.659 233.718 147.297 234.436 146.574C235.155 145.843 235.514 144.951 235.514 143.902C235.514 142.838 235.159 141.948 234.449 141.229C233.743 140.506 232.869 140.145 231.828 140.145C230.791 140.145 229.915 140.506 229.2 141.229C228.485 141.944 228.128 142.826 228.128 143.876Z" fill="black"/>
<path d="M238.426 143.856C238.426 142.453 238.94 141.248 239.968 140.241C240.992 139.233 242.223 138.73 243.661 138.73C245.081 138.73 246.299 139.238 247.315 140.254C248.336 141.27 248.845 142.489 248.845 143.914C248.845 145.347 248.333 146.563 247.309 147.561C246.28 148.564 245.039 149.065 243.585 149.065C242.298 149.065 241.142 148.62 240.118 147.729C238.989 146.744 238.426 145.453 238.426 143.856ZM239.943 143.876C239.943 144.978 240.312 145.884 241.053 146.594C241.789 147.304 242.639 147.659 243.604 147.659C244.65 147.659 245.532 147.297 246.25 146.574C246.969 145.843 247.328 144.951 247.328 143.902C247.328 142.838 246.973 141.948 246.263 141.229C245.558 140.506 244.683 140.145 243.642 140.145C242.605 140.145 241.729 140.506 241.015 141.229C240.299 141.944 239.943 142.826 239.943 143.876Z" fill="black"/>
<path d="M250.737 148.886V138.918H252.828C253.831 138.918 254.623 139.017 255.204 139.215C255.828 139.408 256.394 139.737 256.902 140.202C257.93 141.141 258.445 142.374 258.445 143.901C258.445 145.434 257.909 146.673 256.837 147.62C256.299 148.093 255.735 148.422 255.145 148.607C254.594 148.792 253.813 148.885 252.802 148.885H250.737V148.886ZM252.241 147.472H252.919C253.595 147.472 254.156 147.4 254.604 147.259C255.052 147.108 255.456 146.869 255.818 146.542C256.558 145.866 256.928 144.986 256.928 143.901C256.928 142.808 256.562 141.921 255.831 141.241C255.172 140.635 254.202 140.331 252.919 140.331H252.241V147.472Z" fill="black"/>
</svg>
